<?xml version="1.0" encoding="UTF-8"?>
<svg version="1.1" xmlns="http://www.w3.org/2000/svg" width="512" height="512">
<path d="M0 0 C0.92625183 0.00182281 1.85250366 0.00364563 2.80682373 0.00552368 C17.24939458 0.05331377 31.32996201 0.68396821 45.5625 3.3125 C47.00834473 3.56990967 47.00834473 3.56990967 48.48339844 3.83251953 C84.0011996 10.28244155 120.62393967 21.57887494 148.5625 45.3125 C149.25730469 45.89386719 149.95210938 46.47523438 150.66796875 47.07421875 C164.19593674 59.40766418 164.51992653 75.42837399 165.32566833 92.44430542 C165.40841679 94.31165907 165.48913264 96.17910383 165.56787109 98.04663086 C165.68748199 100.87457419 165.81755217 103.70189171 165.94921875 106.52929688 C168.20483026 156.33978607 164.9898379 203.09756839 130.06396484 241.72216797 C124.76696159 247.33268491 118.96829698 253.00442555 112.5625 257.3125 C111.9025 257.3125 111.2425 257.3125 110.5625 257.3125 C110.7790625 257.97894531 110.995625 258.64539063 111.21875 259.33203125 C115.12381954 272.2585346 114.03374307 282.64146628 108.0625 294.6875 C98.09085496 312.09479146 80.76952959 323.78319513 61.67260742 329.1171875 C22.25287473 339.20119242 -22.03450755 331.80945091 -57.4375 312.3125 C-69.97417056 304.74721122 -79.77541688 294.29874936 -84.4375 280.3125 C-85.31599631 266.81822066 -83.95953762 257.20177029 -75.4375 246.3125 C-75.86417969 245.93222656 -76.29085937 245.55195313 -76.73046875 245.16015625 C-100.26472715 222.98457669 -114.63256005 193.74687385 -115.640625 161.3671875 C-116.35053871 114.72855269 -101.337769 68.14686161 -79.4375 27.3125 C-79.00050781 26.47460938 -78.56351563 25.63671875 -78.11328125 24.7734375 C-71.94758687 13.83496308 -59.14063684 8.47635033 -47.5480957 5.21313477 C-46.74847412 4.99842529 -45.94885254 4.78371582 -45.125 4.5625 C-44.39176514 4.36390381 -43.65853027 4.16530762 -42.90307617 3.96069336 C-28.70013892 0.38815663 -14.55105965 -0.05942065 0 0 Z " fill="#EEC496" transform="translate(129.4375,88.6875)"/>
<path d="M0 0 C2.14243721 1.88519776 3.78896768 3.70350799 5.46484375 6.00390625 C6.19767578 6.99390625 6.19767578 6.99390625 6.9453125 8.00390625 C10.71223128 13.65980776 11.10092232 19.1616622 11.51367188 25.8112793 C12.31532262 32.90681257 14.76200296 39.62889266 16.93359375 46.3984375 C17.40135691 47.87790743 17.86834413 49.35762289 18.33459473 50.83757019 C19.5566312 54.70984446 20.78839811 58.57895143 22.02252197 62.4473877 C23.52275814 67.1558996 25.0119533 71.86791239 26.50225067 76.57957745 C27.66107507 80.24282208 28.82168569 83.90546577 29.98791504 87.56636047 C30.20168289 88.23878281 30.41545074 88.91120514 30.63569641 89.60400391 C31.2118821 91.41620613 31.78918781 93.22805213 32.36657715 95.03987122 C35.64629796 105.713525 34.02713031 114.348987 30.91796875 124.95703125 C30.57231873 126.17485291 30.2266687 127.39267456 29.87054443 128.6473999 C28.95420943 131.86696506 28.02674948 135.08287333 27.09350586 138.29754639 C26.1583382 141.52899627 25.23798328 144.76465346 24.31640625 148 C22.95165175 152.78241357 21.58043157 157.56285223 20.20019531 162.34082031 C19.8898938 163.42431763 19.57959229 164.50781494 19.2598877 165.62414551 C18.56138854 168.02684722 17.84268595 170.42371566 17.11022949 172.81628418 C16.73450806 174.0638147 16.35878662 175.31134521 15.97167969 176.59667969 C15.62393494 177.72797302 15.27619019 178.85926636 14.91790771 180.02484131 C13.71322474 185.62744934 16.31497193 188.94597606 19.15234375 193.62890625 C25.889482 205.21881473 28.47735186 216.84906654 25.5859375 230.1953125 C21.38385287 242.83673027 11.22199669 252.93061091 -0.22265625 259.421875 C-29.04134896 273.3594868 -67.95008281 271.79661313 -98.72265625 266.00390625 C-99.45000977 265.87000488 -100.17736328 265.73610352 -100.92675781 265.59814453 C-125.46192564 260.85774325 -149.43861455 248.09554135 -165.72265625 229.00390625 C-173.52477278 217.0105701 -176.64797064 205.19895164 -173.66015625 191.06640625 C-170.63288965 180.13461018 -163.88479796 171.6031038 -154.72265625 165.00390625 C-153.39985839 164.63095221 -152.06686064 164.29026869 -150.72265625 164.00390625 C-150.9448307 163.21249992 -150.9448307 163.21249992 -151.17149353 162.40510559 C-152.71478526 156.90635462 -154.25547957 151.40688063 -155.79467773 145.90698242 C-156.36920869 143.85536397 -156.94439837 141.80392986 -157.52026367 139.75268555 C-158.34858282 136.80175391 -159.17451936 133.85016424 -160 130.8984375 C-160.25732407 129.98367142 -160.51464813 129.06890533 -160.7797699 128.12641907 C-161.01994339 127.26590439 -161.26011688 126.40538971 -161.50756836 125.51879883 C-161.71852646 124.76601151 -161.92948456 124.01322418 -162.14683533 123.23762512 C-164.56960539 113.83923926 -164.61459181 105.15093141 -161.75390625 95.8203125 C-161.53773651 95.10817093 -161.32156677 94.39602936 -161.09884644 93.66230774 C-160.31801339 91.10590288 -159.52164629 88.55469443 -158.72265625 86.00390625 C-158.4008136 84.97364319 -158.07897095 83.94338013 -157.74737549 82.88189697 C-156.66022027 79.40506887 -155.57068263 75.92899517 -154.48046875 72.453125 C-154.10530121 71.25662323 -153.73013367 70.06012146 -153.34359741 68.82736206 C-152.96337433 67.61525055 -152.58315125 66.40313904 -152.19140625 65.15429688 C-151.61519531 63.31702026 -151.61519531 63.31702026 -151.02734375 61.44262695 C-150.23323876 58.91749797 -149.43667147 56.39331674 -148.63574219 53.87036133 C-147.47044672 50.19248627 -146.31805547 46.51077963 -145.16796875 42.828125 C-144.80663849 41.69904221 -144.44530823 40.56995941 -144.07302856 39.40666199 C-143.74873871 38.36069351 -143.42444885 37.31472504 -143.09033203 36.23706055 C-142.65661789 34.8616938 -142.65661789 34.8616938 -142.21414185 33.45854187 C-141.6911779 30.84669333 -141.90986745 29.50009289 -142.72265625 27.00390625 C-143.51885857 17.86715832 -142.60117256 12.01846395 -137.015625 4.796875 C-106.86330464 -29.04521305 -33.91437545 -24.86405431 0 0 Z " fill="#E9973F" transform="translate(460.72265625,151.99609375)"/>
<path d="M0 0 C0.7405961 2.62626771 0.98430172 4.40030606 0.875 7.1875 C1.28876794 19.80742231 9.4769861 27.61080872 18 36 C17.73372803 36.57105469 17.46745605 37.14210937 17.19311523 37.73046875 C7.65450258 58.38822595 1.02745312 79.23737173 -2.62548828 101.70849609 C-2.95463313 103.72241624 -3.31652277 105.73092737 -3.68359375 107.73828125 C-9.06953357 141.72541873 -4.85252145 180.44243566 6 213 C6.12004395 212.36835938 6.24008789 211.73671875 6.36376953 211.0859375 C15.71187042 162.26123746 29.04628756 111.15758034 63.5 73.5625 C63.99209961 73.02488037 64.48419922 72.48726074 64.99121094 71.93334961 C67.4933042 69.29527302 69.7155802 67.51437582 73 66 C72.26590261 73.4729465 71.09975284 80.85838963 69.90148926 88.26812744 C66.69832747 108.17629121 64.55080357 127.83106931 64 148 C63.97131836 148.95583984 63.94263672 149.91167969 63.91308594 150.89648438 C63.04725247 183.79815628 67.64570301 215.47402886 77 247 C78.02041102 242.02914062 79.00790723 237.05756035 79.859375 232.0546875 C89.09206846 177.94620337 110.21370197 124.55750164 141 79 C142.22687293 82.68061878 141.81337504 85.74063504 141.44140625 89.5234375 C141.30008555 91.09919985 141.15974985 92.67505076 141.02026367 94.25097656 C140.94504486 95.08504028 140.86982605 95.919104 140.79232788 96.77844238 C138.18446331 126.24166761 138.00897557 155.55027847 141 185 C141.09120117 185.97501465 141.18240234 186.9500293 141.27636719 187.95458984 C142.9239952 205.1274987 146.38858647 222.39988108 152.71875 238.50390625 C154 242 154 242 154 246 C163.11562965 242.61646935 171.74195822 238.74556154 180.27514648 234.07250977 C183.79032948 232.14853769 187.22469421 230.38085115 191 229 C195.37267575 240.99883047 194.90832125 250.98693262 189.8515625 262.6484375 C181.35452541 279.78985914 165.63703844 291.4127773 148 298 C109.05969079 311.0577701 63.51889353 303.32359932 27.46484375 285.38671875 C12.99932637 277.87149007 1.22799453 266.68398359 -4 251 C-4.87849631 237.50572066 -3.52203762 227.88927029 5 217 C4.57332031 216.61972656 4.14664063 216.23945313 3.70703125 215.84765625 C-19.82722715 193.67207669 -34.19506005 164.43437385 -35.203125 132.0546875 C-35.90139172 86.1812156 -21.40751445 40.26313976 0 0 Z " fill="#BC6931" transform="translate(49,118)"/>
<path d="M0 0 C2.14243721 1.88519776 3.78896768 3.70350799 5.46484375 6.00390625 C6.19767578 6.99390625 6.19767578 6.99390625 6.9453125 8.00390625 C10.71223128 13.65980776 11.10092232 19.1616622 11.51367188 25.8112793 C12.31532262 32.90681257 14.76200296 39.62889266 16.93359375 46.3984375 C17.40135691 47.87790743 17.86834413 49.35762289 18.33459473 50.83757019 C19.5566312 54.70984446 20.78839811 58.57895143 22.02252197 62.4473877 C23.52275814 67.1558996 25.0119533 71.86791239 26.50225067 76.57957745 C27.66107507 80.24282208 28.82168569 83.90546577 29.98791504 87.56636047 C30.20168289 88.23878281 30.41545074 88.91120514 30.63569641 89.60400391 C31.2118821 91.41620613 31.78918781 93.22805213 32.36657715 95.03987122 C35.63607604 105.68025838 34.04172445 114.30790857 30.953125 124.88671875 C30.60984665 126.09979706 30.2665683 127.31287537 29.91288757 128.56271362 C29.00193277 131.77166262 28.07964553 134.97689716 27.15179443 138.18096924 C26.22534922 141.39238437 25.31599397 144.60858582 24.40429688 147.82421875 C22.39364473 154.89348295 20.34839468 161.952112 18.27734375 169.00390625 C18.01457642 169.90039886 17.75180908 170.79689148 17.4810791 171.72055054 C16.82003487 173.96001849 16.1480512 176.19570024 15.46875 178.4296875 C15.1188501 179.58380127 14.7689502 180.73791504 14.40844727 181.92700195 C9.68374291 194.77946234 0.15312735 203.71075597 -11.72265625 210.00390625 C-19.74806617 213.71064109 -28.14719351 216.29142068 -36.72265625 218.37890625 C-37.40408691 218.54672607 -38.08551758 218.7145459 -38.78759766 218.88745117 C-43.55098468 219.96622851 -47.87586453 220.14454976 -52.72265625 220.00390625 C-52.64225098 219.19050781 -52.5618457 218.37710938 -52.47900391 217.5390625 C-52.10003107 213.69419113 -51.72336406 209.84909769 -51.34765625 206.00390625 C-51.27818787 205.29464996 -51.20871948 204.58539368 -51.137146 203.85464478 C-50.37246629 196.02973083 -49.64008895 188.20751817 -49.04980469 180.3671875 C-47.60041145 161.18198237 -45.07022731 142.09569561 -42.72265625 123.00390625 C-41.79582031 122.87113281 -40.86898437 122.73835937 -39.9140625 122.6015625 C-38.11775391 122.33666016 -38.11775391 122.33666016 -36.28515625 122.06640625 C-35.09019531 121.89238281 -33.89523437 121.71835937 -32.6640625 121.5390625 C-29.84309949 121.31405412 -29.84309949 121.31405412 -28.72265625 120.00390625 C-28.47257895 117.54580627 -28.47257895 117.54580627 -28.72265625 115.00390625 C-30.61111808 112.67524396 -30.61111808 112.67524396 -33.76171875 112.80859375 C-34.94507813 112.83179688 -36.1284375 112.855 -37.34765625 112.87890625 C-38.53617187 112.89695312 -39.7246875 112.915 -40.94921875 112.93359375 C-41.86445313 112.95679688 -42.7796875 112.98 -43.72265625 113.00390625 C-44.86519574 105.7961605 -46.00416293 98.58785686 -47.140625 91.37915039 C-47.52781875 88.92589471 -47.91583608 86.47276887 -48.3046875 84.01977539 C-48.86283464 80.4978954 -49.41803735 76.9755621 -49.97265625 73.453125 C-50.14764648 72.35304611 -50.32263672 71.25296722 -50.50292969 70.11955261 C-50.6630957 69.09872086 -50.82326172 68.0778891 -50.98828125 67.02612305 C-51.13040039 66.12677536 -51.27251953 65.22742767 -51.41894531 64.30082703 C-51.72265625 62.00390625 -51.72265625 62.00390625 -51.72265625 59.00390625 C-53.01961426 59.03532715 -53.01961426 59.03532715 -54.34277344 59.06738281 C-82.77590515 59.6639877 -113.19666936 58.87929379 -135.16015625 38.00390625 C-140.27156923 32.50415184 -142.91422776 28.74820332 -143.22265625 21.06640625 C-142.84889289 11.96017171 -139.12096726 6.44174649 -132.5859375 0.23828125 C-98.28495864 -26.52864905 -34.53868309 -25.32176048 0 0 Z " fill="#E9973F" transform="translate(460.72265625,151.99609375)"/>
<path d="M0 0 C1.58090617 2.82128891 2.26999309 4.95442205 2.41064453 8.17919922 C2.47048019 9.40230301 2.47048019 9.40230301 2.53152466 10.65011597 C2.56494965 11.52612457 2.59837463 12.40213318 2.6328125 13.3046875 C2.67437469 14.22025421 2.71593689 15.13582092 2.75875854 16.07913208 C2.84520258 18.02066954 2.92729701 19.96240483 3.00537109 21.90429688 C3.12318432 24.82991197 3.25367619 27.75472955 3.38671875 30.6796875 C5.5949728 80.69518701 2.58820785 127.64389725 -32.53808594 166.43164062 C-40.3757983 174.84003478 -48.88940558 181.45286344 -59 187 C-59.75861328 187.41701172 -60.51722656 187.83402344 -61.29882812 188.26367188 C-63.79663317 189.62629078 -66.3019872 190.97344633 -68.8125 192.3125 C-69.60084229 192.73345947 -70.38918457 193.15441895 -71.20141602 193.58813477 C-83.45844448 200 -83.45844448 200 -89 200 C-100.11182501 165.20074016 -105.20298494 131.41312799 -105.25 94.875 C-105.25200409 94.10327454 -105.25400818 93.33154907 -105.256073 92.53643799 C-105.26424451 79.43633304 -104.59564405 66.43209788 -103.5625 53.375 C-103.4951062 52.51904236 -103.4277124 51.66308472 -103.35827637 50.78118896 C-103.16393525 48.36127388 -102.96156935 45.94224306 -102.75390625 43.5234375 C-102.66318596 42.44322327 -102.66318596 42.44322327 -102.57063293 41.34118652 C-102.30279437 38.38198529 -101.94398912 35.83196736 -101 33 C-100.06542969 33.01571045 -99.13085938 33.0314209 -98.16796875 33.04760742 C-48.63992676 34.54499633 -48.63992676 34.54499633 -5.77734375 12.94921875 C-2.2392239 9.06895105 -0.75464346 5.1315755 0 0 Z " fill="#BC6931" transform="translate(292,164)"/>
<path d="M0 0 C3.64883499 1.25258514 6.56755063 2.98712591 9.70141602 5.22265625 C42.5500525 28.55156437 84.85407944 36.84654272 124 42 C121.60918091 46.94518727 119.04818523 51.65473987 116.125 56.3125 C86.94517166 104.02427687 68.27215131 157.62958475 61 213 C59.02960229 210.04440344 58.29884843 207.97201677 57.37890625 204.58203125 C57.08467773 203.50163574 56.79044922 202.42124023 56.48730469 201.30810547 C48.58523719 171.4396254 45.14806553 141.91457204 46 111 C46.01546875 110.11860352 46.0309375 109.23720703 46.046875 108.32910156 C46.48985616 83.73441869 50.04935851 59.05327367 54.69628906 34.92822266 C55.07779502 32.83142158 55.07779502 32.83142158 55 30 C42.62858799 39.81419277 34.0817867 52.62619112 26 66 C25.64196289 66.59055176 25.28392578 67.18110352 24.91503906 67.78955078 C5.11585775 101.08114979 -4.34470464 141.04999169 -10 179 C-12.39100872 175.41348692 -13.33038808 171.79677644 -14.4375 167.6875 C-14.65704346 166.88078857 -14.87658691 166.07407715 -15.1027832 165.24291992 C-29.824664 110.39510252 -25.41350407 50.9560107 0 0 Z " fill="#E9973E" transform="translate(66,155)"/>
<path d="M0 0 C0.35191406 0.94359375 0.70382812 1.8871875 1.06640625 2.859375 C8.69639201 22.89038264 19.72855807 39.14580861 39.546875 48.6484375 C69.83548647 60.50348226 105.53137667 56.93491389 135.03515625 44.74609375 C146.59032051 39.33463352 155.05789766 31.19857749 161 20 C165.32999493 23.87579966 167.74900813 27.78639387 170.25 33 C170.600625 33.69867188 170.95125 34.39734375 171.3125 35.1171875 C176.16937616 45.01774276 176.92748816 57.47520104 173.375 68 C167.8091556 81.09841826 156.01643788 91.41149845 143.05859375 96.875 C114.45525671 107.39576765 79.64013178 106.5795332 50 101 C49.27264648 100.86609863 48.54529297 100.73219727 47.79589844 100.59423828 C23.26073061 95.853837 -0.7159583 83.0916351 -17 64 C-24.80211653 52.00666385 -27.92531439 40.19504539 -24.9375 26.0625 C-21.9360848 15.22405621 -12.82516986 -1.13546497 0 0 Z " fill="#686492" transform="translate(312,317)"/>
<path d="M0 0 C2.14243721 1.88519776 3.78896768 3.70350799 5.46484375 6.00390625 C6.19767578 6.99390625 6.19767578 6.99390625 6.9453125 8.00390625 C10.31109141 13.05750978 11.91716267 18.12371408 10.9140625 24.20703125 C7.86222967 34.9165305 0.46994464 41.43287308 -8.83984375 46.9296875 C-35.12872218 61.50417755 -72.82693997 63.87863651 -101.59814453 55.64990234 C-102.2992334 55.43672363 -103.00032227 55.22354492 -103.72265625 55.00390625 C-104.44565918 54.78428223 -105.16866211 54.5646582 -105.91357422 54.33837891 C-119.859673 49.92497743 -132.68220784 43.01406215 -141.22265625 30.75390625 C-144.01878656 25.2989556 -143.66343025 18.56763293 -142.1328125 12.76953125 C-136.60243582 0.02672784 -123.90821141 -5.91320096 -111.77246094 -10.77783203 C-77.61190258 -23.75252793 -30.1790516 -22.12553137 0 0 Z " fill="#EEC496" transform="translate(460.72265625,151.99609375)"/>
<path d="M0 0 C0.9075 0.804375 1.815 1.60875 2.75 2.4375 C33.23948036 28.41453727 68.07478269 39.51067249 108 37 C133.44379537 34.60095098 155.93359621 27.77009441 177.94921875 14.84472656 C182.81174527 12 182.81174527 12 185 12 C189.37267575 23.99883047 188.90832125 33.98693262 183.8515625 45.6484375 C175.35452541 62.78985914 159.63703844 74.4127773 142 81 C103.05969079 94.0577701 57.51889353 86.32359932 21.46484375 68.38671875 C6.99932637 60.87149007 -4.77200547 49.68398359 -10 34 C-10.7667899 22.22160436 -10.65730018 12.31878978 -2.75 2.875 C-1.8425 1.92625 -0.935 0.9775 0 0 Z " fill="#686492" transform="translate(55,335)"/>
<path d="M0 0 C1.22687293 3.68061878 0.81337504 6.74063504 0.44140625 10.5234375 C0.30008555 12.09919985 0.15974985 13.67505076 0.02026367 15.25097656 C-0.09256454 16.50207214 -0.09256454 16.50207214 -0.20767212 17.77844238 C-2.81553669 47.24166761 -2.99102443 76.55027847 0 106 C0.09120117 106.97501465 0.18240234 107.9500293 0.27636719 108.95458984 C1.92016332 126.08755966 5.33001651 143.39833663 11.71875 159.44140625 C12.8985522 162.71823493 13.11914933 164.61114594 13 168 C4.43947949 170.8494279 -3.94562762 172.96399063 -12.875 174.25 C-14.03322266 174.41838379 -15.19144531 174.58676758 -16.38476562 174.76025391 C-24.10050746 175.80004599 -31.71493237 176.36207444 -39.5 176.375 C-40.84940674 176.37741699 -40.84940674 176.37741699 -42.22607422 176.37988281 C-58.90003824 176.09996176 -58.90003824 176.09996176 -62 173 C-67.19281691 116.21952658 -30.75321379 45.50854364 0 0 Z " fill="#BC6931" transform="translate(190,197)"/>
<path d="M0 0 C8.58 0 17.16 0 26 0 C28.00232108 10.11699071 29.73194857 20.26683575 31.34341431 30.45263672 C31.57196776 31.89559451 31.80207939 33.33830641 32.03378296 34.78076172 C32.36463652 36.84529266 32.68906064 38.91073669 33.01171875 40.9765625 C33.20209717 42.18393066 33.39247559 43.39129883 33.58862305 44.63525391 C33.97539327 47.79873593 34.07676161 50.81727566 34 54 C34.90363281 53.89300781 35.80726563 53.78601563 36.73828125 53.67578125 C37.91777344 53.55589844 39.09726562 53.43601562 40.3125 53.3125 C41.48425781 53.18488281 42.65601563 53.05726563 43.86328125 52.92578125 C47 53 47 53 48.8984375 54.3203125 C50.43533245 56.6638048 50.35168771 58.25683583 50 61 C46.7394904 64.2605096 43.10916255 64.05467405 38.6875 64.0625 C36.8621875 64.0315625 36.8621875 64.0315625 35 64 C35.0203833 65.13453613 35.0407666 66.26907227 35.06176758 67.43798828 C35.05907096 72.01258615 34.58375561 76.4583555 34.01171875 80.9921875 C33.79913239 82.75112692 33.58665309 84.51007928 33.37426758 86.26904297 C33.26208893 87.1837738 33.14991028 88.09850464 33.03433228 89.04095459 C31.04191368 105.32146011 29.28301444 121.59751489 27.98901367 137.94873047 C27.88564697 139.22119629 27.78228027 140.49366211 27.67578125 141.8046875 C27.59239502 142.88733887 27.50900879 143.96999023 27.4230957 145.08544922 C26.81104825 150.7482126 25.86607868 156.37048857 25 162 C15.76 162 6.52 162 -3 162 C-1.68 161.67 -0.36 161.34 1 161 C0.505 160.01 0.505 160.01 0 159 C-0.35709684 156.26784882 -0.6653037 153.54665386 -0.93969727 150.8059082 C-1.07158951 149.53486488 -1.07158951 149.53486488 -1.20614624 148.23814392 C-1.49684842 145.42608031 -1.78178183 142.61346605 -2.06640625 139.80078125 C-2.26651736 137.84740257 -2.46687365 135.894049 -2.66746521 133.9407196 C-3.08773382 129.83939631 -3.50518568 125.73779857 -3.9206543 121.63598633 C-4.45245351 116.38766359 -4.99090045 111.14004897 -5.53144932 105.89262104 C-5.9466942 101.85477395 -6.35851377 97.81658312 -6.76930046 93.77828026 C-6.96643256 91.84415476 -7.16458988 89.91013346 -7.36380196 87.97622108 C-7.64255262 85.26483982 -7.91671564 82.55303182 -8.18969727 79.84106445 C-8.31357567 78.6492305 -8.31357567 78.6492305 -8.43995667 77.43331909 C-8.88775259 72.92910284 -9.0777774 68.5265788 -9 64 C-10.2375 64.061875 -11.475 64.12375 -12.75 64.1875 C-15.51081041 64.17281484 -16.93942616 64.02725823 -19.5 62.875 C-21.62549629 60.21812963 -21.35911339 58.30384317 -21 55 C-19.26043342 53.26043342 -16.8063378 53.62809614 -14.4375 53.4375 C-13.42558594 53.35371094 -12.41367187 53.26992188 -11.37109375 53.18359375 C-10.58863281 53.12300781 -9.80617188 53.06242187 -9 53 C-8.901996 52.36550934 -8.803992 51.73101868 -8.70301819 51.07730103 C-7.6850229 44.49100973 -6.66236609 37.90545446 -5.63696289 31.3203125 C-5.25457335 28.86053853 -4.87338466 26.40057758 -4.4934082 23.94042969 C-3.9479609 20.4103118 -3.39823998 16.88088244 -2.84765625 13.3515625 C-2.6778273 12.24632233 -2.50799835 11.14108215 -2.33302307 10.00234985 C-2.17293259 8.98144257 -2.0128421 7.96053528 -1.84790039 6.90869141 C-1.70800186 6.00712311 -1.56810333 5.10555481 -1.42396545 4.17666626 C-1 2 -1 2 0 0 Z " fill="#BB6931" transform="translate(383,211)"/>
<path d="M0 0 C3.37027629 1.12342543 3.93188808 1.91331211 6.0625 4.625 C12.04978352 11.67332111 19.68761687 16.15167448 28 20 C27.38559905 26.79399019 26.14984417 33.21470293 24.53125 39.8359375 C24.29088013 40.83710602 24.05051025 41.83827454 23.80285645 42.86978149 C23.04035221 46.03944638 22.27013344 49.20718123 21.5 52.375 C20.98259951 54.52462569 20.46566789 56.6743643 19.94921875 58.82421875 C19.45615198 60.86989362 18.96267689 62.91547013 18.46875 64.9609375 C18.23643677 65.923414 18.00412354 66.8858905 17.76477051 67.87753296 C17.43938293 69.21505112 17.43938293 69.21505112 17.10742188 70.57958984 C16.91724487 71.36296722 16.72706787 72.1463446 16.53112793 72.95346069 C16.08953802 74.65499258 15.55589679 76.33230963 15 78 C15.67546875 77.95359375 16.3509375 77.9071875 17.046875 77.859375 C24.3081255 77.56556718 24.3081255 77.56556718 27.6875 79.6875 C29 82 29 82 28.8125 84.6875 C28 87 28 87 27 88 C24.98035801 88.07244053 22.95832876 88.08377188 20.9375 88.0625 C19.83277344 88.05347656 18.72804688 88.04445313 17.58984375 88.03515625 C16.73519531 88.02355469 15.88054687 88.01195312 15 88 C15.18792114 89.18698486 15.18792114 89.18698486 15.37963867 90.39794922 C19.39974095 115.83854207 23.26362501 141.30143169 26.8125 166.8125 C26.93641113 167.68922363 27.06032227 168.56594727 27.18798828 169.46923828 C27.71763638 173.3437038 28.15115849 177.07783485 28 181 C9.6900711 171.58686952 0.23833607 155.73217741 -7 137 C-7.28979736 136.26346191 -7.57959473 135.52692383 -7.87817383 134.76806641 C-10.95321617 126.68204471 -13.23630671 118.39924333 -15.51928711 110.06396484 C-16.19224456 107.60768245 -16.87195517 105.15334357 -17.55273438 102.69921875 C-17.98736951 101.12510773 -18.42162799 99.55089264 -18.85546875 97.9765625 C-19.05649704 97.24942047 -19.25752533 96.52227844 -19.46464539 95.77310181 C-22.39373698 85.05833493 -23.35007658 75.63390546 -20.02734375 64.83203125 C-19.81096756 64.12071548 -19.59459137 63.40939972 -19.37165833 62.67652893 C-18.58959474 60.1150078 -17.79446968 57.55769967 -17 55 C-16.33111037 52.82326228 -15.66285641 50.64632917 -14.99511719 48.46923828 C-12.73775129 41.12164764 -10.46321662 33.77942352 -8.1875 26.4375 C-7.39103252 23.86530974 -6.5949261 21.29300777 -5.79882812 18.72070312 C-3.86713217 12.48008214 -1.93410413 6.23987504 0 0 Z " fill="#BB6931" transform="translate(319,183)"/>
<path d="M0 0 C2 1 2 1 2.979599 3.43795776 C3.32140701 4.52174713 3.66321503 5.6055365 4.01538086 6.72216797 C4.40596176 7.9478952 4.79654266 9.17362244 5.19895935 10.43649292 C5.62114248 11.78832191 6.04309805 13.14022198 6.46484375 14.4921875 C6.90259938 15.87707297 7.34096798 17.26176481 7.77992249 18.64627075 C8.70158641 21.55864134 9.61824921 24.47252104 10.53100586 27.38769531 C11.69209462 31.09585761 12.86146906 34.80133257 14.03420162 38.50582695 C15.15985161 42.06285573 16.28125281 45.62121972 17.40234375 49.1796875 C17.61277754 49.84645382 17.82321133 50.51322014 18.0400219 51.2001915 C19.38255307 55.46007549 20.69813955 59.72752966 22 64 C22.47120773 65.49203949 22.47120773 65.49203949 22.95193481 67.01422119 C26.3065314 78.20552302 24.91502749 86.78801965 21.67578125 97.8828125 C21.3325029 99.09589081 20.98922455 100.30896912 20.63554382 101.55880737 C19.72458902 104.76775637 18.80230178 107.97299091 17.87445068 111.17706299 C16.94800547 114.38847812 16.03865022 117.60467957 15.12695312 120.8203125 C13.11630098 127.8895767 11.07105093 134.94820575 9 142 C8.73723267 142.89649261 8.47446533 143.79298523 8.20373535 144.71664429 C7.54269112 146.95611224 6.87070745 149.19179399 6.19140625 151.42578125 C5.6665564 153.1569519 5.6665564 153.1569519 5.13110352 154.9230957 C0.38231222 167.84107901 -9.13834443 176.56963848 -21 183 C-22.3263313 183.3601863 -23.65906604 183.6986945 -25 184 C-23.82644153 172.60032212 -22.36857231 161.285773 -20.56964111 149.96829224 C-19.90308817 145.77196833 -19.25026666 141.57351145 -18.59765625 137.375 C-18.4647821 136.52116226 -18.33190796 135.66732452 -18.19500732 134.78761292 C-16.7650833 125.55640902 -15.43570342 116.31128002 -14.125 107.0625 C-14.01586273 106.29285919 -13.90672546 105.52321838 -13.79428101 104.73025513 C-13.19320115 100.48725442 -12.59513603 96.24383912 -12 92 C-12.62648438 92.02320313 -13.25296875 92.04640625 -13.8984375 92.0703125 C-14.71570313 92.08835937 -15.53296875 92.10640625 -16.375 92.125 C-17.18710937 92.14820313 -17.99921875 92.17140625 -18.8359375 92.1953125 C-21 92 -21 92 -23 90 C-23.375 87.5625 -23.375 87.5625 -23 85 C-21.4375 83.1875 -21.4375 83.1875 -19 82 C-16.66714828 81.95259446 -14.3327601 81.94828186 -12 82 C-12.16286499 81.33458694 -12.32572998 80.66917389 -12.49353027 79.9835968 C-14.18730602 73.05851948 -15.87307279 66.13152781 -17.55419922 59.20336914 C-18.18204096 56.61773258 -18.81319298 54.03296842 -19.44580078 51.44848633 C-20.35465862 47.73386879 -21.25616371 44.0175326 -22.15625 40.30078125 C-22.44060913 39.14540359 -22.72496826 37.99002594 -23.01794434 36.79963684 C-23.27821411 35.71889389 -23.53848389 34.63815094 -23.80664062 33.5246582 C-24.03758423 32.57645706 -24.26852783 31.62825592 -24.50646973 30.65132141 C-25.0051458 27.97235595 -25.30105408 25.71213485 -25 23 C-22.76853401 21.23656815 -20.76164966 19.88483387 -18.3125 18.5 C-10.55185141 13.97628517 -3.74521795 8.42674038 0 0 Z " fill="#BC6931" transform="translate(470,179)"/>
<path d="M0 0 C0.99 0.495 0.99 0.495 2 1 C1.64397705 1.70568115 1.2879541 2.4113623 0.92114258 3.13842773 C-25.3386196 55.51936706 -43.14631586 110.52876653 -49 169 C-51.86221522 166.13778478 -52.64938828 162.64446634 -53.875 158.875 C-54.13966064 158.06313232 -54.40432129 157.25126465 -54.67700195 156.41479492 C-59.59570665 141.08176804 -62.33140712 126.01096412 -64 110 C-64.10586426 108.98599121 -64.21172852 107.97198242 -64.32080078 106.92724609 C-67.38343023 76.082539 -66.40390862 45.35022051 -63.75390625 14.5234375 C-63.69342102 13.80334503 -63.63293579 13.08325256 -63.57061768 12.34133911 C-63.30281642 9.3820768 -62.94400692 6.83202076 -62 4 C-61.06542969 4.01571045 -60.13085938 4.0314209 -59.16796875 4.04760742 C-29.20790185 5.23720624 -29.20790185 5.23720624 0 0 Z " fill="#E9973E" transform="translate(253,193)"/>
<path d="M0 0 C0.7405961 2.62626771 0.98430172 4.40030606 0.875 7.1875 C1.28876794 19.80742231 9.4769861 27.61080872 18 36 C17.73372803 36.57105469 17.46745605 37.14210937 17.19311523 37.73046875 C7.65450258 58.38822595 1.02745312 79.23737173 -2.62548828 101.70849609 C-2.95463313 103.72241624 -3.31652277 105.73092737 -3.68359375 107.73828125 C-8.64495926 139.04620841 -4.7207417 172.70358902 3.28637695 203.13891602 C4.49399563 207.75661311 5.42812305 212.2597755 6 217 C-15.61496857 200.08393764 -30.90112462 171.65240357 -34.28930664 144.69848633 C-39.44954579 95.02798181 -23.12044677 43.48481379 0 0 Z " fill="#9A5629" transform="translate(49,118)"/>
<path d="M0 0 C1.58090617 2.82128891 2.26999309 4.95442205 2.41064453 8.17919922 C2.45053497 8.99460175 2.49042542 9.81000427 2.53152466 10.65011597 C2.56494965 11.52612457 2.59837463 12.40213318 2.6328125 13.3046875 C2.67437469 14.22025421 2.71593689 15.13582092 2.75875854 16.07913208 C2.84520258 18.02066954 2.92729701 19.96240483 3.00537109 21.90429688 C3.12318432 24.82991197 3.25367619 27.75472955 3.38671875 30.6796875 C5.4108193 76.52423163 3.82269373 121.3012953 -25.875 158.75 C-26.57625 159.4925 -27.2775 160.235 -28 161 C-28.66 161 -29.32 161 -30 161 C-42.53648338 123.00872802 -37.45961578 78.86193535 -34 39.625 C-33.9292627 38.78743164 -33.85852539 37.94986328 -33.78564453 37.08691406 C-33.04956396 29.50705591 -33.04956396 29.50705591 -31 27 C-28.3125 25.76171875 -28.3125 25.76171875 -25 24.6875 C-16.19315004 21.51157844 -8.24025359 16.93977816 -3 9 C-1.80504011 6.04660319 -0.83970832 3.0721036 0 0 Z " fill="#E9973E" transform="translate(292,164)"/>
<path d="M0 0 C1.47330107 0.01006997 2.94660896 0.01918858 4.41992188 0.02734375 C7.96759384 0.04899313 11.51500022 0.08329113 15.0625 0.125 C11.26996862 2.18092403 8.12669655 2.54647223 3.8125 2.9375 C-11.3512681 4.60207055 -28.38507381 9.78131823 -39.9375 20.125 C-41.5047001 22.10657528 -41.5047001 22.10657528 -42.6875 24.1875 C-43.09484375 24.85910156 -43.5021875 25.53070313 -43.921875 26.22265625 C-46.81971466 31.65053285 -46.70479509 37.14608964 -45.20703125 42.9609375 C-37.48919824 64.19194384 -15.12410987 75.49062162 3.99072266 84.70849609 C34.22615939 98.65111284 67.05326535 105.16433237 100.0625 108.125 C100.0625 108.455 100.0625 108.785 100.0625 109.125 C45.73390529 110.18802187 -21.38808796 101.40882965 -62.7890625 62.27734375 C-69.85468417 55.1988755 -76.79707946 47.70770908 -76.9921875 37.171875 C-76.53844863 28.84675318 -75.3713352 23.34330154 -69.25 17.51953125 C-61.09907117 10.91388268 -51.66130023 7.06988565 -41.625 4.375 C-40.89176514 4.17640381 -40.15853027 3.97780762 -39.40307617 3.77319336 C-26.32072022 0.48252212 -13.39698099 -0.16246196 0 0 Z " fill="#C7A583" transform="translate(125.9375,88.875)"/>
<path d="M0 0 C1.6538269 0.01135986 1.6538269 0.01135986 3.34106445 0.02294922 C12.44523504 0.20536551 20.33522843 1.41965391 28.9375 4.4375 C30.78408203 5.07365234 30.78408203 5.07365234 32.66796875 5.72265625 C41.80548056 9.23859059 49.43561952 14.18467928 54.9375 22.4375 C55.50167084 26.70907925 55.26832999 28.85569554 53.125 32.625 C47.63763565 38.50544203 37.84245985 40.19218326 30.14453125 40.67578125 C10.96199834 41.16341692 -9.10409102 37.28349885 -23.75 24 C-27.11180061 20.27476148 -29.00092392 18.13084214 -29.1875 13 C-27.68709412 8.2487147 -25.35633451 5.89515528 -21.0625 3.4375 C-14.12249242 0.32461416 -7.52907732 -0.07250009 0 0 Z " fill="#6E7586" transform="translate(160.0625,122.5625)"/>
<path d="M0 0 C0.9075 0.804375 1.815 1.60875 2.75 2.4375 C11.37036266 9.95962531 11.37036266 9.95962531 21 16 C20.97679688 16.9178125 20.95359375 17.835625 20.9296875 18.78125 C20.70747879 33.89144202 24.12337115 43.55851558 34.5703125 54.65625 C54.61123013 73.98832489 87.10835282 82.27009036 114 85 C114 85.33 114 85.66 114 86 C83.20691984 93.30386152 41.4477636 80.75307105 15.13330078 64.87353516 C3.43838122 57.24230481 -5.55680935 47.32957195 -10 34 C-10.7667899 22.22160436 -10.65730018 12.31878978 -2.75 2.875 C-1.8425 1.92625 -0.935 0.9775 0 0 Z " fill="#4B4B6E" transform="translate(55,335)"/>
<path d="M0 0 C0.92490234 -0.00773438 1.84980469 -0.01546875 2.80273438 -0.0234375 C13.59299081 0.00680849 24.64277861 1.81733523 33.6875 8.0625 C35.76867462 11.37345963 35.73324186 13.42677141 35.0625 17.25 C29.59239112 23.43986004 20.43348955 26.91265551 12.24438477 27.42700195 C8.70450664 27.49394307 5.16540823 27.53496961 1.625 27.5625 C-0.18774414 27.60600586 -0.18774414 27.60600586 -2.03710938 27.65039062 C-12.02680277 27.71994928 -21.95875329 26.44683091 -30.25 20.4375 C-32.65844984 18.05313466 -32.95405779 17.17740044 -33.75 13.6875 C-32.87363218 9.97979001 -31.79689467 8.51326606 -28.703125 6.30859375 C-19.69250219 0.90620706 -10.28216056 -0.08562521 0 0 Z " fill="#6E7486" transform="translate(392.9375,150.75)"/>
<path d="M0 0 C1.50832602 2.43008081 1.48523622 4.00265752 1.125 6.8125 C-3.93149229 11.86899229 -15.08097019 11.03316102 -21.94921875 11.078125 C-23.875 10.8125 -23.875 10.8125 -25.875 8.8125 C-26.25 6.375 -26.25 6.375 -25.875 3.8125 C-22.62678952 0.58021212 -19.44646274 0.1843937 -15 -0.375 C-13.80632812 -0.53355469 -12.61265625 -0.69210937 -11.3828125 -0.85546875 C-2.65513461 -1.68158525 -2.65513461 -1.68158525 0 0 Z " fill="#717482" transform="translate(472.875,260.1875)"/>
<path d="M0 0 C0.80308594 0.11859375 1.60617187 0.2371875 2.43359375 0.359375 C6.05000933 0.86239034 9.60120068 1.21128118 13.24609375 1.421875 C16.48520534 1.7534376 17.76188567 2.03826276 20.55859375 3.859375 C21.87109375 6.109375 21.87109375 6.109375 21.68359375 8.796875 C20.87109375 11.109375 20.87109375 11.109375 19.87109375 12.109375 C12.24718282 12.80986254 4.29436774 11.85729707 -3.12890625 10.109375 C-5.12890625 8.109375 -5.12890625 8.109375 -5.44140625 5.671875 C-5.12890625 3.109375 -5.12890625 3.109375 -3.89453125 1.43359375 C-2.12890625 0.109375 -2.12890625 0.109375 0 0 Z " fill="#707483" transform="translate(326.12890625,258.890625)"/>
<path d="M0 0 C1.58949375 2.4260694 1.55237512 3.96647406 1.1875 6.8125 C-3.32740811 11.32740811 -12.8227272 10.92165013 -19 11.0625 C-22.8125 10.8125 -22.8125 10.8125 -24.8125 8.8125 C-25.15602907 6.13297328 -25.27798687 4.50987148 -23.75390625 2.2265625 C-20.89549389 0.14458006 -17.8602078 -0.01488885 -14.4375 -0.375 C-13.13039063 -0.53355469 -11.82328125 -0.69210937 -10.4765625 -0.85546875 C-2.42003192 -1.58553815 -2.42003192 -1.58553815 0 0 Z " fill="#707483" transform="translate(431.8125,265.1875)"/>
<path d="M0 0 C18.24798997 0.04649169 18.24798997 0.04649169 21.38671875 2.515625 C23.13759111 4.7950626 22.98768709 6.33432194 22.62890625 9.1328125 C20.62890625 11.1328125 20.62890625 11.1328125 18.62939453 11.31567383 C16.00299481 11.20670225 13.37858382 11.0907189 10.75390625 10.9453125 C9.84253906 10.91373047 8.93117188 10.88214844 7.9921875 10.84960938 C6.67154297 10.78290039 6.67154297 10.78290039 5.32421875 10.71484375 C4.52000488 10.67593018 3.71579102 10.6370166 2.88720703 10.59692383 C0.11003227 10.02617689 -1.33444567 9.0902416 -3.37109375 7.1328125 C-3.68359375 4.0078125 -3.68359375 4.0078125 -3.37109375 1.1328125 C-2.37109375 0.1328125 -2.37109375 0.1328125 0 0 Z " fill="#6F7483" transform="translate(365.37109375,264.8671875)"/>
<path d="M0 0 C0.99 0.99 1.98 1.98 3 3 C0.36 8.61 -2.28 14.22 -5 20 C-6.10960573 16.67118282 -5.9412896 16.12635748 -4.78515625 12.98828125 C-4.51123047 12.23095703 -4.23730469 11.47363281 -3.95507812 10.69335938 C-3.66052734 9.90767578 -3.36597656 9.12199219 -3.0625 8.3125 C-2.77181641 7.51521484 -2.48113281 6.71792969 -2.18164062 5.89648438 C-1.46260698 3.92798243 -0.73236297 1.96358188 0 0 Z " fill="#BA6931" transform="translate(64,152)"/>
</svg>
